<svg xmlns="http://www.w3.org/2000/svg" viewBox="0 0 800 800"><defs><style>.cls-1{fill:#d30d5e;}.cls-2{fill:#ffccdb;}</style></defs><g id="BG-Escuro-Logo-Clara"><rect class="cls-1" x="1.48" width="800" height="800"/><path class="cls-2" d="M347,202.62h0a17,17,0,0,0-12.1,5.06,17,17,0,0,0-29.14,12h0c0,22.26,29.14,31.82,29.14,31.82S364,241.62,364,219.66h0A17,17,0,0,0,347,202.62Z"/><path class="cls-2" d="M234.81,202.62a42.11,42.11,0,0,1,18.71,4.11,41,41,0,0,1,14.38,11.82,55.77,55.77,0,0,1,9.23,18.67,85.61,85.61,0,0,1,3.24,24.32V398.2q0,15.07-4.2,24.66a39.08,39.08,0,0,1-11.62,15.42,39.26,39.26,0,0,1,11.62,15.24q4.2,9.42,4.2,24.14V623.23q0,27.4-12.47,43.16t-33.56,15.75H193.1a3.9,3.9,0,0,1-3.6-2,10.05,10.05,0,0,1-1.2-5.14V209.82a10.05,10.05,0,0,1,1.2-5.14,3.91,3.91,0,0,1,3.6-2.06Zm13.43,58.92q0-9.26-3.36-14.9T234.34,241H220.43V418.75h13.91q7.18,0,10.54-5.82t3.36-14.73Zm0,216.12q0-8.9-3.36-14.72a11.11,11.11,0,0,0-10.3-5.83H220.43V643.78h13.91q7.18,0,10.54-5.65t3.36-14.9Z"/><path class="cls-2" d="M318.72,285.51q0-7.87,3.84-12.68A12.29,12.29,0,0,1,332.63,268h13.43a3.9,3.9,0,0,1,3.59,2,10.05,10.05,0,0,1,1.2,5.14V669.81a14.85,14.85,0,0,1-2.52,8.74c-1.67,2.4-3.71,3.59-6.11,3.59H327.36c-2.4,0-4.44-1.19-6.12-3.59a14.85,14.85,0,0,1-2.52-8.74Z"/><path class="cls-2" d="M481.28,628.71A85.1,85.1,0,0,1,478,653.2a54.9,54.9,0,0,1-9.35,18.5,41.54,41.54,0,0,1-14.63,11.81,42.56,42.56,0,0,1-18.82,4.11q-21.83,0-33.93-15.75t-12.1-43.16v-163a10,10,0,0,1,1.2-5.14,3.89,3.89,0,0,1,3.59-2.06h13.91A10.92,10.92,0,0,1,418,464.31q3.36,5.82,3.35,14.72V628.71q0,9.25,3.48,14.9a11.44,11.44,0,0,0,10.43,5.65q7.2,0,10.55-5.65t3.36-14.9V220.09q0-7.87,3.83-12.67a12.29,12.29,0,0,1,10.07-4.8h13.43a3.91,3.91,0,0,1,3.6,2.06,10.15,10.15,0,0,1,1.2,5.14Z"/><path class="cls-2" d="M611.7,628.71q0,27.4-12.11,43.16t-33.93,15.75a42.39,42.39,0,0,1-18.94-4.11,41.74,41.74,0,0,1-14.5-11.81,54.72,54.72,0,0,1-9.35-18.5,85.1,85.1,0,0,1-3.24-24.49V209.82a10.05,10.05,0,0,1,1.2-5.14,3.91,3.91,0,0,1,3.59-2.06h13.43a12.29,12.29,0,0,1,10.07,4.8q3.84,4.8,3.84,12.67V628.71q0,9.25,3.35,14.9t10.55,5.65a11.44,11.44,0,0,0,10.43-5.65q3.48-5.65,3.48-14.9V220.09q0-7.87,3.84-12.67a12.28,12.28,0,0,1,10.07-4.8H606.9a3.91,3.91,0,0,1,3.6,2.06,10.05,10.05,0,0,1,1.2,5.14Z"/><path class="cls-2" d="M353.61,741.58a1,1,0,0,1-.88-.49,1.11,1.11,0,0,1-.06-1l6.93-16.48a1,1,0,0,1,1-.7,1,1,0,0,1,.95.7l7,16.51a1,1,0,0,1-.91,1.46,1.09,1.09,0,0,1-.58-.17,1.06,1.06,0,0,1-.4-.46l-6.36-15.58H361L354.54,741a.9.9,0,0,1-.38.47A1.12,1.12,0,0,1,353.61,741.58Zm1.48-4.35.79-1.75h9.58l.81,1.75Z"/><path class="cls-2" d="M390,741.81a8.78,8.78,0,0,1-3.62-.74,9.42,9.42,0,0,1-4.95-5.1,10.26,10.26,0,0,1,0-7.45,9.34,9.34,0,0,1,4.92-5.09,8.9,8.9,0,0,1,3.65-.76,9.56,9.56,0,0,1,3.13.49,9,9,0,0,1,2.7,1.59.77.77,0,0,1,.27.37.68.68,0,0,1,0,.4.88.88,0,0,1-.18.33.6.6,0,0,1-.27.42,1,1,0,0,1-.54.16,1,1,0,0,1-.62-.24,6.13,6.13,0,0,0-2-1.21,7.27,7.27,0,0,0-2.53-.39,6.78,6.78,0,0,0-2.83.6,7.6,7.6,0,0,0-2.33,1.67,7.75,7.75,0,0,0-1.57,2.43,8.13,8.13,0,0,0,0,5.93,7.8,7.8,0,0,0,1.57,2.44,7.37,7.37,0,0,0,2.33,1.65,6.93,6.93,0,0,0,2.83.59,6.72,6.72,0,0,0,2.41-.43,8.4,8.4,0,0,0,2.2-1.22.9.9,0,0,1,.68-.21,1,1,0,0,1,.6.3.89.89,0,0,1,.25.68.92.92,0,0,1-.07.38,1.84,1.84,0,0,1-.22.36,7.8,7.8,0,0,1-2.73,1.56A9.89,9.89,0,0,1,390,741.81Z"/><path class="cls-2" d="M411.81,741.58a1,1,0,0,1-.74-.29,1,1,0,0,1-.28-.74V723.94a1,1,0,0,1,.28-.74,1,1,0,0,1,.74-.29H422.9a1,1,0,0,1,.72.28.93.93,0,0,1,.29.7.91.91,0,0,1-.29.68,1,1,0,0,1-.72.28H412.84v6.35h7.29a1,1,0,0,1,.74.29,1,1,0,0,1,0,1.4,1,1,0,0,1-.74.27h-7.29v6.48H422.9a1,1,0,0,1,.72.27,1,1,0,0,1,0,1.39,1,1,0,0,1-.72.28Z"/><path class="cls-2" d="M443.91,741.81a8.84,8.84,0,0,1-2.86-.45,7.2,7.2,0,0,1-2.31-1.28,5.15,5.15,0,0,1-1.45-1.92.76.76,0,0,1,0-.77,1,1,0,0,1,.69-.47.94.94,0,0,1,.71.08,1.11,1.11,0,0,1,.53.56,3.8,3.8,0,0,0,1,1.21,5,5,0,0,0,1.62.83,6.73,6.73,0,0,0,2.05.3,5.81,5.81,0,0,0,2.22-.4,3.56,3.56,0,0,0,1.55-1.18,3,3,0,0,0,.57-1.86A3.3,3.3,0,0,0,447.2,734a5.52,5.52,0,0,0-3.34-1.31A8,8,0,0,1,439.4,731a4.46,4.46,0,0,1-1.61-3.49,4.19,4.19,0,0,1,.81-2.57,5.19,5.19,0,0,1,2.22-1.67,8.31,8.31,0,0,1,3.21-.59,6.62,6.62,0,0,1,2.43.42,6.49,6.49,0,0,1,1.88,1.11,6.72,6.72,0,0,1,1.32,1.56,1,1,0,0,1,.21.82,1,1,0,0,1-.44.61,1,1,0,0,1-.8.06,1.12,1.12,0,0,1-.64-.51,5.27,5.27,0,0,0-.89-1.07,4.12,4.12,0,0,0-1.31-.77,6,6,0,0,0-4.82.45,2.54,2.54,0,0,0-1.17,2.27,2.82,2.82,0,0,0,.41,1.45,3.21,3.21,0,0,0,1.41,1.15,9.35,9.35,0,0,0,2.72.72,7.77,7.77,0,0,1,4.44,1.79,4.88,4.88,0,0,1,1.48,3.71,5.21,5.21,0,0,1-.49,2.32,4.66,4.66,0,0,1-1.37,1.68,6.27,6.27,0,0,1-2,1A8.46,8.46,0,0,1,443.91,741.81Z"/><path class="cls-2" d="M470.67,741.81a8.88,8.88,0,0,1-2.86-.45,7.05,7.05,0,0,1-2.3-1.28,5.18,5.18,0,0,1-1.46-1.92.76.76,0,0,1,0-.77,1,1,0,0,1,.68-.47,1,1,0,0,1,.72.08,1.14,1.14,0,0,1,.52.56,3.93,3.93,0,0,0,1,1.21,5.11,5.11,0,0,0,1.63.83,6.66,6.66,0,0,0,2,.3,5.74,5.74,0,0,0,2.22-.4,3.56,3.56,0,0,0,1.55-1.18,3,3,0,0,0,.58-1.86,3.3,3.3,0,0,0-1-2.42,5.55,5.55,0,0,0-3.35-1.31,8.05,8.05,0,0,1-4.46-1.74,4.46,4.46,0,0,1-1.61-3.49,4.19,4.19,0,0,1,.81-2.57,5.28,5.28,0,0,1,2.23-1.67,8.26,8.26,0,0,1,3.2-.59,6.68,6.68,0,0,1,2.44.42,6.43,6.43,0,0,1,1.87,1.11,6.53,6.53,0,0,1,1.33,1.56,1,1,0,0,1,.2.82.91.91,0,0,1-.44.61,1,1,0,0,1-.8.06,1.07,1.07,0,0,1-.63-.51,5,5,0,0,0-.9-1.07,4.07,4.07,0,0,0-1.3-.77,6,6,0,0,0-4.83.45,2.54,2.54,0,0,0-1.17,2.27,2.74,2.74,0,0,0,.42,1.45,3.21,3.21,0,0,0,1.41,1.15,9.27,9.27,0,0,0,2.71.72,7.74,7.74,0,0,1,4.44,1.79,4.89,4.89,0,0,1,1.49,3.71,5.35,5.35,0,0,1-.49,2.32,4.69,4.69,0,0,1-1.38,1.68,6.32,6.32,0,0,1-2,1A8.53,8.53,0,0,1,470.67,741.81Z"/><path class="cls-2" d="M500.28,741.81a10,10,0,0,1-3.83-.71,9.21,9.21,0,0,1-3-2,8.78,8.78,0,0,1-2-3,10.41,10.41,0,0,1-.7-3.84,10.3,10.3,0,0,1,.7-3.82,8.83,8.83,0,0,1,2-3,9.05,9.05,0,0,1,3-2,10,10,0,0,1,3.83-.72,9.87,9.87,0,0,1,3.81.72,9.26,9.26,0,0,1,3,2,8.71,8.71,0,0,1,2,3,10.3,10.3,0,0,1,.7,3.82,10.41,10.41,0,0,1-.7,3.84,8.66,8.66,0,0,1-2,3,9.42,9.42,0,0,1-3,2A9.87,9.87,0,0,1,500.28,741.81Zm0-1.91a7.52,7.52,0,0,0,3-.58,7.31,7.31,0,0,0,4-4.06,8.59,8.59,0,0,0,0-6,7.26,7.26,0,0,0-1.57-2.44,7.05,7.05,0,0,0-2.39-1.61,7.7,7.7,0,0,0-3-.57,7.88,7.88,0,0,0-3,.57,7.05,7.05,0,0,0-2.39,1.61,7.55,7.55,0,0,0-1.56,2.44,8.45,8.45,0,0,0,0,6,7.51,7.51,0,0,0,1.56,2.43,7.25,7.25,0,0,0,2.39,1.63A7.7,7.7,0,0,0,500.28,739.9Zm-.1-19a1,1,0,0,1-.72-.3,1,1,0,0,1-.28-.71,1.07,1.07,0,0,1,.21-.69l2.61-2.58a.92.92,0,0,1,.71-.31,1,1,0,0,1,.72.3,1.05,1.05,0,0,1,.29.75,1.15,1.15,0,0,1-.06.37.71.71,0,0,1-.23.32l-2.56,2.58A.9.9,0,0,1,500.18,720.91Z"/><path class="cls-2" d="M525.44,741.58a1,1,0,0,1-.74-.29,1,1,0,0,1-.29-.74V723.94a1,1,0,0,1,.29-.74,1,1,0,0,1,.74-.29h4.42a6.54,6.54,0,0,1,3.12.74,5.58,5.58,0,0,1,2.15,2.05,5.82,5.82,0,0,1,.77,3,5.48,5.48,0,0,1-.77,2.89,5.34,5.34,0,0,1-2.15,2,6.64,6.64,0,0,1-3.12.72h-3.4v6.24a1,1,0,0,1-1,1Zm1-9.23h3.4a4.59,4.59,0,0,0,2.09-.46,3.76,3.76,0,0,0,1.44-1.29,3.44,3.44,0,0,0,.53-1.88,3.85,3.85,0,0,0-.53-2,3.7,3.7,0,0,0-1.44-1.36,4.36,4.36,0,0,0-2.09-.49h-3.4Zm8.94,9.23a1,1,0,0,1-.53-.14.9.9,0,0,1-.35-.39L530,733.86l2-.53,4.18,6.67a1.06,1.06,0,0,1,.14,1.09A1,1,0,0,1,535.4,741.58Z"/><path class="cls-2" d="M551.05,741.58a1,1,0,0,1-1-1V723.94a1,1,0,0,1,1-1,1,1,0,0,1,.74.29,1,1,0,0,1,.29.74v16.61a1,1,0,0,1-.29.74A1,1,0,0,1,551.05,741.58Z"/><path class="cls-2" d="M576.24,741.81a9.88,9.88,0,0,1-3.82-.71,9.15,9.15,0,0,1-3-2,8.78,8.78,0,0,1-2-3,10.41,10.41,0,0,1-.69-3.84,10.3,10.3,0,0,1,.69-3.82,8.83,8.83,0,0,1,2-3,9,9,0,0,1,3-2,10.47,10.47,0,0,1,7.63,0,9.26,9.26,0,0,1,3,2,8.88,8.88,0,0,1,2,3,10.3,10.3,0,0,1,.69,3.82,10.41,10.41,0,0,1-.69,3.84,8.82,8.82,0,0,1-2,3,9.42,9.42,0,0,1-3,2A9.87,9.87,0,0,1,576.24,741.81Zm0-1.91a7.6,7.6,0,0,0,3-.58,7.46,7.46,0,0,0,2.39-1.63,7.19,7.19,0,0,0,1.56-2.43,8.59,8.59,0,0,0,0-6,7.11,7.11,0,0,0-4-4.05,8.21,8.21,0,0,0-6,0,7,7,0,0,0-2.39,1.61,7.58,7.58,0,0,0-1.57,2.44,8.45,8.45,0,0,0,0,6,7.53,7.53,0,0,0,1.57,2.43,7.15,7.15,0,0,0,2.39,1.63A7.62,7.62,0,0,0,576.24,739.9Z"/><path class="cls-2" d="M606.16,741.81a8.84,8.84,0,0,1-2.86-.45,7.2,7.2,0,0,1-2.31-1.28,5.15,5.15,0,0,1-1.45-1.92.76.76,0,0,1,0-.77,1,1,0,0,1,.69-.47.94.94,0,0,1,.71.08,1.11,1.11,0,0,1,.53.56,3.8,3.8,0,0,0,1,1.21,5,5,0,0,0,1.62.83,6.73,6.73,0,0,0,2,.3,5.81,5.81,0,0,0,2.22-.4,3.56,3.56,0,0,0,1.55-1.18,3,3,0,0,0,.57-1.86,3.3,3.3,0,0,0-1-2.42,5.52,5.52,0,0,0-3.34-1.31,8,8,0,0,1-4.46-1.74A4.46,4.46,0,0,1,600,727.5a4.19,4.19,0,0,1,.81-2.57,5.19,5.19,0,0,1,2.22-1.67,8.31,8.31,0,0,1,3.21-.59,6.62,6.62,0,0,1,2.43.42,6.49,6.49,0,0,1,1.88,1.11,6.72,6.72,0,0,1,1.32,1.56,1,1,0,0,1,.21.82,1,1,0,0,1-.44.61,1,1,0,0,1-.8.06,1.12,1.12,0,0,1-.64-.51,5.27,5.27,0,0,0-.89-1.07,4.12,4.12,0,0,0-1.31-.77,6,6,0,0,0-4.82.45,2.54,2.54,0,0,0-1.17,2.27,2.82,2.82,0,0,0,.41,1.45,3.21,3.21,0,0,0,1.41,1.15,9.35,9.35,0,0,0,2.72.72,7.77,7.77,0,0,1,4.44,1.79,4.88,4.88,0,0,1,1.48,3.71,5.21,5.21,0,0,1-.49,2.32,4.66,4.66,0,0,1-1.37,1.68,6.27,6.27,0,0,1-2,1A8.46,8.46,0,0,1,606.16,741.81Z"/><path class="cls-2" d="M315.55,152.78a17,17,0,0,1-14.5-7.74c-2.68-4.25-2.64-10-2.61-15.59,0-4.35.05-8.85-1.48-10.66-2.08-2.45-8.35-1.94-16.36,1.32l-.09,0c-23.12,9.39-39.24,15.79-52.07,19-14.61,3.65-24.36,2.89-31.61-2.45-5.15-3.78-7.74-10.93-7.72-21.24a2.58,2.58,0,0,1,2.57-2.56h0a2.58,2.58,0,0,1,2.56,2.59c0,8.57,1.87,14.32,5.62,17.08,3.47,2.56,7.68,3.75,12.92,3.75,13.49,0,33.8-7.93,65.79-20.93l.08,0c7.5-3.06,17.45-5.51,22.22.12,2.75,3.25,2.72,8.47,2.69,14,0,4.84-.06,9.84,1.83,12.82,3.05,4.84,10.27,7.77,18.9,2.76,8.23-4.78,11.22-14.11,8-25l-.89-3,20.26-1.94a2.56,2.56,0,0,1,2.8,2.82,2.63,2.63,0,0,1-2.41,2.3L338,121.63a28.43,28.43,0,0,1-.75,15.63,23.27,23.27,0,0,1-10.35,12.24A22.59,22.59,0,0,1,315.55,152.78Z"/><path class="cls-2" d="M350.54,151.89c-3.54,0-6.48-1.2-8.28-3.38-4.36-5.27-2.36-15.27,4.66-23.28,7.49-8.56,18.29-11.9,25.13-7.76h0a8.43,8.43,0,0,1,3.81,5.92c.93,4.94-1,11.31-5.12,16.62-5.62,7.32-13.07,11.76-19.92,11.88Zm14.78-31c-4.26,0-9.9,2.45-14.54,7.75-5.64,6.43-6.91,13.79-4.57,16.63.83,1,2.46,1.55,4.52,1.52s9-.86,15.95-9.88c3.6-4.69,4.68-9.68,4.14-12.54a3.62,3.62,0,0,0-1.43-2.48h0A7.79,7.79,0,0,0,365.32,120.86Z"/><path class="cls-2" d="M383.67,153c-3.64,0-6.55-1.29-8.29-3.7-3.81-5.28.22-16.71,4.6-22.93,5.14-7.31,8.47-8.27,9.66-8.34a2.56,2.56,0,0,1,.57,5.09c-.28.11-2.4,1-6,6.2-4.41,6.27-6.27,14.72-4.63,17,1.14,1.58,3.61,1.64,5,1.54,5.15-.4,12.46-4.36,15.14-9.63,3.42-6.73,3.61-8.69,4.06-13.42.12-1.26.26-2.68.47-4.41a2.65,2.65,0,0,1,2.33-2.35,2.57,2.57,0,0,1,2.79,2.79c-.31,3.34-.62,6.34-.89,9-.86,8.37-1.46,14.18-.33,16.6l.74-.82c.55-.63,1.17-1.33,1.91-2.06a2.63,2.63,0,0,1,3.33-.31,2.57,2.57,0,0,1,.3,3.94c-.62.6-1.16,1.22-1.69,1.82-1.4,1.59-2.72,3.08-4.74,3.1h0a4.26,4.26,0,0,1-3.19-1.56c-1.54-1.7-2.21-3.93-2.35-7.08a26.68,26.68,0,0,1-17.45,9.51C384.49,153,384.07,153,383.67,153ZM390,123.12Zm0,0Zm0,0h0Z"/><path class="cls-2" d="M475.67,160.67a2.62,2.62,0,0,1-1.42-.43,2.64,2.64,0,0,1-.82-3.38c1.8-3.66,3.4-7.32,4.8-11A23.17,23.17,0,0,1,464,152.32c-4.75.41-7.45-1.26-8.88-2.74-2.38-2.44-3.29-6.27-2.71-11.37,1.12-9.91,12.25-20.46,20.23-21.83,5.86-1,10.21-.2,12.94,2.36C488,106.82,488.27,93.38,488,83c-.24-5.72-.7-10.29-1-13.32-.43-4.29-.5-5.06.43-6.08a2.61,2.61,0,0,1,1.94-.87A2.57,2.57,0,0,1,491.89,65a216.94,216.94,0,0,1,1.34,22.53c.29,18.12-2,44.86-15.26,71.72A2.56,2.56,0,0,1,475.67,160.67Zm1.52-39.58a22.92,22.92,0,0,0-3.73.35c-6,1-15.15,10-16,17.35-.39,3.45,0,6,1.29,7.21,1,1,2.56,1.39,4.76,1.21a18.52,18.52,0,0,0,13.29-7.31A40.08,40.08,0,0,0,483.39,127a5.9,5.9,0,0,0-1.28-4.46C481.13,121.59,479.46,121.09,477.19,121.09Z"/><path class="cls-2" d="M503.49,151.76c-5.16,0-9.18-1.42-11.67-4.28s-3.36-7.14-2.61-12.19c1.12-7.46,5.64-14.65,11.53-18.34,5.29-3.31,11.91-4.6,16.86-3.28a9.55,9.55,0,0,1,6.21,4.62,10.68,10.68,0,0,1,.59,8.65c-1.43,4.19-5.08,8-9.76,10.08-7.31,3.3-15.15,2.8-20.31-1.24h0c-.59,3.61-.08,6.66,1.37,8.34,3.65,4.21,14.88,3,27.93-2.88l.07,0c18.29-8.32,21.59-9.82,39.83-15.82,15.43-5.07,32.25-4.82,39.6-1.64a16.19,16.19,0,0,1,9.12,10.72c1.06,4.5-1,11.05-8.68,14.59-3.28-.91-3.14-4.16-1.14-5.15,4.86-2.39,5.7-6.47,4.69-9.31a11.61,11.61,0,0,0-6-6.14c-6.33-2.74-21.88-2.82-36,1.81-18,5.91-21.23,7.39-39.3,15.61l-.07,0C517.2,149.8,509.56,151.76,503.49,151.76Zm-7.68-21.06a2.49,2.49,0,0,1,1.16.6c3.61,3.28,9.72,3.68,15.55,1a13.05,13.05,0,0,0,7-7.07,5.58,5.58,0,0,0-.26-4.58,4.52,4.52,0,0,0-3-2.07c-3.53-.95-8.79.15-12.81,2.67A20.62,20.62,0,0,0,495.81,130.7Z"/></g></svg>