<svg xmlns="http://www.w3.org/2000/svg" viewBox="0 0 800 800"><defs><style>.cls-1{fill:#d30d5e;}</style></defs><g id="Logo-Escura-Sem-BG"><path class="cls-1" d="M346.62,200.35h0a16.94,16.94,0,0,0-12.1,5.05,17,17,0,0,0-29.14,12h0c0,22.26,29.14,31.82,29.14,31.82s29.13-9.85,29.13-31.82h0A17,17,0,0,0,346.62,200.35Z"/><path class="cls-1" d="M234.43,200.35a42,42,0,0,1,18.7,4.11,40.85,40.85,0,0,1,14.38,11.81,55.68,55.68,0,0,1,9.23,18.67A85.61,85.61,0,0,1,280,259.26V395.92q0,15.07-4.19,24.66A39,39,0,0,1,264.16,436a39.28,39.28,0,0,1,11.63,15.24q4.18,9.42,4.19,24.15V621q0,27.42-12.47,43.16T234,679.87H192.71a3.91,3.91,0,0,1-3.6-2.06,10.05,10.05,0,0,1-1.2-5.14V207.54a10.05,10.05,0,0,1,1.2-5.14,3.9,3.9,0,0,1,3.6-2.05Zm13.42,58.91q0-9.25-3.35-14.9T234,238.71H220V416.47H234c4.79,0,8.31-1.93,10.55-5.82s3.35-8.79,3.35-14.73Zm0,216.13q0-8.91-3.35-14.73a11.11,11.11,0,0,0-10.31-5.82H220V641.51H234q7.19,0,10.55-5.66t3.35-14.9Z"/><path class="cls-1" d="M318.34,283.23q0-7.87,3.83-12.68a12.29,12.29,0,0,1,10.07-4.79h13.43a3.9,3.9,0,0,1,3.59,2.05,10.08,10.08,0,0,1,1.2,5.14V667.54a14.91,14.91,0,0,1-2.51,8.73q-2.52,3.6-6.12,3.6H327q-3.6,0-6.12-3.6a14.91,14.91,0,0,1-2.51-8.73Z"/><path class="cls-1" d="M480.89,626.43a85.1,85.1,0,0,1-3.24,24.49,54.62,54.62,0,0,1-9.35,18.5,41.59,41.59,0,0,1-14.63,11.82,42.7,42.7,0,0,1-18.82,4.11q-21.81,0-33.92-15.76t-12.11-43.16v-163a10.05,10.05,0,0,1,1.2-5.14,3.89,3.89,0,0,1,3.59-2.05h13.91A10.92,10.92,0,0,1,417.59,462q3.36,5.82,3.36,14.73V626.43q0,9.26,3.47,14.9A11.46,11.46,0,0,0,434.85,647q7.2,0,10.55-5.66t3.36-14.9V217.82q0-7.87,3.84-12.68a12.27,12.27,0,0,1,10.07-4.79h13.42a3.9,3.9,0,0,1,3.6,2.05,10.05,10.05,0,0,1,1.2,5.14Z"/><path class="cls-1" d="M611.31,626.43q0,27.42-12.11,43.16t-33.92,15.76a42.53,42.53,0,0,1-18.95-4.11,42,42,0,0,1-14.5-11.82,54.62,54.62,0,0,1-9.35-18.5,85.1,85.1,0,0,1-3.24-24.49V207.54a10.05,10.05,0,0,1,1.2-5.14,3.9,3.9,0,0,1,3.6-2.05h13.42a12.29,12.29,0,0,1,10.07,4.79q3.84,4.8,3.84,12.68V626.43q0,9.26,3.36,14.9T565.28,647a11.46,11.46,0,0,0,10.43-5.66q3.46-5.64,3.47-14.9V217.82q0-7.87,3.84-12.68a12.27,12.27,0,0,1,10.07-4.79h13.42a3.9,3.9,0,0,1,3.6,2.05,10.05,10.05,0,0,1,1.2,5.14Z"/><path class="cls-1" d="M352.4,739.3a1,1,0,0,1-.87-.49,1.09,1.09,0,0,1-.06-1l6.93-16.49a1.05,1.05,0,0,1,1-.7,1,1,0,0,1,.95.7l7,16.51a1,1,0,0,1-.06,1,1,1,0,0,1-.85.47,1.09,1.09,0,0,1-1-.62l-6.36-15.58h.72l-6.45,15.58a.89.89,0,0,1-.39.46A1,1,0,0,1,352.4,739.3Zm1.49-4.35.78-1.75h9.59l.81,1.75Z"/><path class="cls-1" d="M388.8,739.54a9,9,0,0,1-3.62-.74,9.39,9.39,0,0,1-4.95-5.11,10.26,10.26,0,0,1,0-7.45,9.43,9.43,0,0,1,2-3,9.65,9.65,0,0,1,2.95-2.05,8.9,8.9,0,0,1,3.65-.75,9.3,9.3,0,0,1,3.13.49,8.62,8.62,0,0,1,2.7,1.59.73.73,0,0,1,.27.37.65.65,0,0,1,0,.39.88.88,0,0,1-.18.33.6.6,0,0,1-.27.42.89.89,0,0,1-.54.16,1,1,0,0,1-.62-.24,6.43,6.43,0,0,0-2-1.21,7.31,7.31,0,0,0-2.53-.39,6.6,6.6,0,0,0-2.83.61,7.4,7.4,0,0,0-2.33,1.66,7.75,7.75,0,0,0-1.57,2.43,8.13,8.13,0,0,0,0,5.93,7.69,7.69,0,0,0,1.57,2.44A7.37,7.37,0,0,0,386,737a7,7,0,0,0,5.24.16,8.65,8.65,0,0,0,2.2-1.21.87.87,0,0,1,.68-.22,1,1,0,0,1,.6.3.91.91,0,0,1,.25.68,1.12,1.12,0,0,1-.07.38,1.59,1.59,0,0,1-.22.36,8,8,0,0,1-2.73,1.57A10.18,10.18,0,0,1,388.8,739.54Z"/><path class="cls-1" d="M410.61,739.3a1,1,0,0,1-1-1V721.66a1,1,0,0,1,1-1H421.7a1,1,0,0,1,.72.28,1,1,0,0,1,0,1.39,1,1,0,0,1-.72.27H411.64v6.36h7.29a1,1,0,0,1,.74.28,1,1,0,0,1,.29.7.93.93,0,0,1-.29.7,1,1,0,0,1-.74.28h-7.29v6.47H421.7a1,1,0,0,1,.72.28.9.9,0,0,1,.28.68.93.93,0,0,1-.28.7,1,1,0,0,1-.72.28Z"/><path class="cls-1" d="M442.7,739.54a8.52,8.52,0,0,1-2.85-.46,7.1,7.1,0,0,1-2.31-1.28,5.15,5.15,0,0,1-1.45-1.92.74.74,0,0,1,0-.76,1.05,1.05,0,0,1,.68-.48,1,1,0,0,1,.72.08,1.11,1.11,0,0,1,.53.56,3.8,3.8,0,0,0,1,1.21,5,5,0,0,0,1.62.84,6.71,6.71,0,0,0,2,.29,5.83,5.83,0,0,0,2.23-.4,3.61,3.61,0,0,0,1.55-1.17,3,3,0,0,0,.57-1.87,3.3,3.3,0,0,0-1.05-2.42,5.52,5.52,0,0,0-3.34-1.3,8.07,8.07,0,0,1-4.46-1.75,4.43,4.43,0,0,1-1.61-3.49,4.21,4.21,0,0,1,.81-2.57,5.19,5.19,0,0,1,2.22-1.67,8.3,8.3,0,0,1,3.2-.58,6.9,6.9,0,0,1,2.44.41,6.3,6.3,0,0,1,1.88,1.12,6.67,6.67,0,0,1,1.32,1.55,1.1,1.1,0,0,1,.21.82.9.9,0,0,1-.45.61,1,1,0,0,1-.8.06,1.07,1.07,0,0,1-.63-.51,5,5,0,0,0-.9-1.06,3.82,3.82,0,0,0-1.3-.78,6,6,0,0,0-4.82.45,2.53,2.53,0,0,0-1.18,2.27,2.74,2.74,0,0,0,.42,1.45,3.29,3.29,0,0,0,1.41,1.16,9.4,9.4,0,0,0,2.71.71,7.78,7.78,0,0,1,4.45,1.8,4.86,4.86,0,0,1,1.48,3.7,5.18,5.18,0,0,1-.49,2.32,4.66,4.66,0,0,1-1.37,1.68,6.08,6.08,0,0,1-2.05,1A8.53,8.53,0,0,1,442.7,739.54Z"/><path class="cls-1" d="M469.47,739.54a8.62,8.62,0,0,1-2.86-.46,7.05,7.05,0,0,1-2.3-1.28,5.18,5.18,0,0,1-1.46-1.92.74.74,0,0,1,0-.76,1,1,0,0,1,.68-.48.93.93,0,0,1,.71.08,1.11,1.11,0,0,1,.53.56,3.93,3.93,0,0,0,1,1.21,5.08,5.08,0,0,0,1.62.84,6.77,6.77,0,0,0,2.05.29,5.74,5.74,0,0,0,2.22-.4,3.61,3.61,0,0,0,1.55-1.17,3,3,0,0,0,.58-1.87,3.3,3.3,0,0,0-1.05-2.42,5.58,5.58,0,0,0-3.35-1.3,8.1,8.1,0,0,1-4.46-1.75,4.46,4.46,0,0,1-1.61-3.49,4.21,4.21,0,0,1,.81-2.57,5.22,5.22,0,0,1,2.23-1.67,8.26,8.26,0,0,1,3.2-.58,6.9,6.9,0,0,1,2.44.41,6.24,6.24,0,0,1,1.87,1.12,6.72,6.72,0,0,1,1.33,1.55,1,1,0,0,1,.2.82.89.89,0,0,1-.44.61,1,1,0,0,1-.8.06,1.12,1.12,0,0,1-.64-.51,4.65,4.65,0,0,0-.89-1.06,4,4,0,0,0-1.3-.78,6,6,0,0,0-4.83.45,2.54,2.54,0,0,0-1.17,2.27,2.74,2.74,0,0,0,.42,1.45,3.17,3.17,0,0,0,1.41,1.16,9.31,9.31,0,0,0,2.71.71,7.77,7.77,0,0,1,4.44,1.8,4.86,4.86,0,0,1,1.48,3.7,5.18,5.18,0,0,1-.49,2.32,4.56,4.56,0,0,1-1.37,1.68,6.13,6.13,0,0,1-2,1A8.59,8.59,0,0,1,469.47,739.54Z"/><path class="cls-1" d="M499.07,739.54a9.92,9.92,0,0,1-3.82-.72,9.05,9.05,0,0,1-3-2,8.78,8.78,0,0,1-2-3,10.21,10.21,0,0,1-.7-3.84,10.1,10.1,0,0,1,.7-3.82,8.83,8.83,0,0,1,2-3,9.21,9.21,0,0,1,3-2,10.63,10.63,0,0,1,7.64,0,9.42,9.42,0,0,1,3,2,8.71,8.71,0,0,1,2,3,10.3,10.3,0,0,1,.69,3.82,10.41,10.41,0,0,1-.69,3.84,8.66,8.66,0,0,1-2,3,9.26,9.26,0,0,1-3,2A9.88,9.88,0,0,1,499.07,739.54Zm0-1.92a7.54,7.54,0,0,0,3-.58,7.1,7.1,0,0,0,2.39-1.63A7.21,7.21,0,0,0,506,733a8.59,8.59,0,0,0,0-6.05,7.36,7.36,0,0,0-1.57-2.44,7.05,7.05,0,0,0-2.39-1.61,7.71,7.71,0,0,0-3-.57,7.87,7.87,0,0,0-3,.57,7.05,7.05,0,0,0-2.39,1.61,7.49,7.49,0,0,0-1.56,2.44,8.45,8.45,0,0,0,0,6.05,7.34,7.34,0,0,0,1.56,2.43,7.1,7.1,0,0,0,2.39,1.63A7.69,7.69,0,0,0,499.07,737.62Zm-.09-19a1,1,0,0,1-.72-.3,1,1,0,0,1-.29-.71,1.1,1.1,0,0,1,.22-.69l2.6-2.58a1,1,0,0,1,1.44,0,1.05,1.05,0,0,1,.29.75,1.51,1.51,0,0,1-.06.37.79.79,0,0,1-.23.32l-2.56,2.59A1,1,0,0,1,499,718.63Z"/><path class="cls-1" d="M524.24,739.3a1,1,0,0,1-.75-.29,1,1,0,0,1-.28-.74V721.66a1,1,0,0,1,.28-.74,1,1,0,0,1,.75-.29h4.42a6.36,6.36,0,0,1,3.11.75,5.44,5.44,0,0,1,2.16,2,5.85,5.85,0,0,1,.77,3,5.48,5.48,0,0,1-.77,2.89,5.39,5.39,0,0,1-2.16,2,6.69,6.69,0,0,1-3.11.71h-3.4v6.24a1,1,0,0,1-.28.74A1,1,0,0,1,524.24,739.3Zm1-9.23h3.4a4.59,4.59,0,0,0,2.09-.46,3.6,3.6,0,0,0,1.44-1.29,3.44,3.44,0,0,0,.53-1.88,3.85,3.85,0,0,0-.53-2,3.7,3.7,0,0,0-1.44-1.36,4.36,4.36,0,0,0-2.09-.49h-3.4Zm8.94,9.23a1.09,1.09,0,0,1-.53-.13,1,1,0,0,1-.35-.4l-4.52-7.19,2-.53,4.18,6.67a1,1,0,0,1,.13,1.09A1,1,0,0,1,534.2,739.3Z"/><path class="cls-1" d="M549.85,739.3a1,1,0,0,1-1-1V721.66a1,1,0,1,1,2.06,0v16.61a1,1,0,0,1-1,1Z"/><path class="cls-1" d="M575,739.54a10,10,0,0,1-3.83-.72,9.05,9.05,0,0,1-3-2,8.78,8.78,0,0,1-2-3,10.41,10.41,0,0,1-.69-3.84,10.3,10.3,0,0,1,.69-3.82,8.83,8.83,0,0,1,2-3,9.21,9.21,0,0,1,3-2,10,10,0,0,1,3.83-.71,9.87,9.87,0,0,1,3.81.71,9.42,9.42,0,0,1,3,2,8.71,8.71,0,0,1,2,3,10.1,10.1,0,0,1,.7,3.82,10.21,10.21,0,0,1-.7,3.84,8.66,8.66,0,0,1-2,3,9.26,9.26,0,0,1-3,2A9.87,9.87,0,0,1,575,739.54Zm0-1.92a7.6,7.6,0,0,0,3-.58,7.25,7.25,0,0,0,4-4.06,8.59,8.59,0,0,0,0-6.05,7.49,7.49,0,0,0-1.56-2.44,7.25,7.25,0,0,0-2.39-1.61,8.21,8.21,0,0,0-6,0,7,7,0,0,0-2.39,1.61,7.69,7.69,0,0,0-1.57,2.44,8.45,8.45,0,0,0,0,6.05,7.53,7.53,0,0,0,1.57,2.43A7,7,0,0,0,572,737,7.62,7.62,0,0,0,575,737.62Z"/><path class="cls-1" d="M605,739.54a8.52,8.52,0,0,1-2.85-.46,7.1,7.1,0,0,1-2.31-1.28,5.15,5.15,0,0,1-1.45-1.92.74.74,0,0,1,0-.76,1.05,1.05,0,0,1,.68-.48,1,1,0,0,1,.72.08,1.11,1.11,0,0,1,.53.56,3.8,3.8,0,0,0,1,1.21,5,5,0,0,0,1.62.84,6.71,6.71,0,0,0,2,.29,5.83,5.83,0,0,0,2.23-.4,3.61,3.61,0,0,0,1.55-1.17,3,3,0,0,0,.57-1.87,3.3,3.3,0,0,0-1-2.42,5.52,5.52,0,0,0-3.34-1.3,8.07,8.07,0,0,1-4.46-1.75,4.43,4.43,0,0,1-1.61-3.49,4.21,4.21,0,0,1,.81-2.57,5.19,5.19,0,0,1,2.22-1.67,8.3,8.3,0,0,1,3.2-.58,6.9,6.9,0,0,1,2.44.41,6.3,6.3,0,0,1,1.88,1.12,6.67,6.67,0,0,1,1.32,1.55,1.1,1.1,0,0,1,.21.82.9.9,0,0,1-.45.61,1,1,0,0,1-.8.06,1.07,1.07,0,0,1-.63-.51,5,5,0,0,0-.9-1.06,3.82,3.82,0,0,0-1.3-.78,6,6,0,0,0-4.82.45,2.53,2.53,0,0,0-1.18,2.27,2.74,2.74,0,0,0,.42,1.45,3.29,3.29,0,0,0,1.41,1.16,9.4,9.4,0,0,0,2.71.71,7.78,7.78,0,0,1,4.45,1.8,4.86,4.86,0,0,1,1.48,3.7,5.18,5.18,0,0,1-.49,2.32,4.66,4.66,0,0,1-1.37,1.68,6.08,6.08,0,0,1-2.05,1A8.53,8.53,0,0,1,605,739.54Z"/><path class="cls-1" d="M314.34,150.5a17,17,0,0,1-14.49-7.74c-2.68-4.25-2.65-10-2.61-15.59,0-4.35.05-8.85-1.48-10.65-2.08-2.45-8.35-2-16.36,1.31l-.09,0c-23.12,9.39-39.24,15.79-52.07,19-14.61,3.65-24.36,2.9-31.61-2.44-5.15-3.79-7.74-10.94-7.72-21.24a2.58,2.58,0,0,1,2.57-2.57h0a2.58,2.58,0,0,1,2.56,2.59c0,8.58,1.87,14.32,5.62,17.08,3.47,2.56,7.68,3.75,12.91,3.75,13.5,0,33.8-7.92,65.79-20.92l.09,0c7.5-3,17.44-5.51,22.22.12,2.75,3.25,2.72,8.47,2.69,14,0,4.84-.06,9.84,1.82,12.82,3.06,4.84,10.28,7.77,18.91,2.76,8.23-4.78,11.22-14.11,8-25l-.89-3,20.26-1.94a2.57,2.57,0,0,1,2.8,2.83,2.63,2.63,0,0,1-2.41,2.29l-14.08,1.35A28.43,28.43,0,0,1,336,135a23.23,23.23,0,0,1-10.35,12.24A22.6,22.6,0,0,1,314.34,150.5Z"/><path class="cls-1" d="M349.34,149.61c-3.54,0-6.48-1.19-8.29-3.38C336.7,141,338.7,131,345.71,123c7.5-8.56,18.3-11.89,25.14-7.76h0a8.45,8.45,0,0,1,3.81,5.93c.93,4.94-1,11.3-5.12,16.61-5.62,7.32-13.07,11.76-19.92,11.88Zm14.78-31c-4.26,0-9.9,2.44-14.54,7.74-5.64,6.44-6.92,13.8-4.57,16.63.83,1,2.46,1.55,4.52,1.52s9-.85,16-9.88c3.6-4.69,4.68-9.67,4.14-12.54a3.62,3.62,0,0,0-1.43-2.48h0A7.89,7.89,0,0,0,364.12,118.59Z"/><path class="cls-1" d="M382.46,150.69c-3.63,0-6.54-1.29-8.28-3.7-3.81-5.28.22-16.71,4.6-22.93,5.14-7.31,8.46-8.27,9.66-8.34a2.56,2.56,0,0,1,.57,5.09c-.28.11-2.4,1-6,6.2-4.41,6.27-6.27,14.72-4.63,17,1.14,1.58,3.6,1.64,5,1.54,5.15-.4,12.45-4.36,15.13-9.63,3.43-6.73,3.62-8.69,4.07-13.42.12-1.26.26-2.68.47-4.41a2.63,2.63,0,0,1,2.33-2.34,2.57,2.57,0,0,1,2.79,2.79c-.31,3.34-.62,6.34-.89,9-.86,8.38-1.46,14.18-.33,16.6.25-.26.51-.56.74-.82.55-.62,1.17-1.33,1.91-2.05a2.64,2.64,0,0,1,3.33-.32,2.57,2.57,0,0,1,.3,3.94c-.62.61-1.16,1.23-1.69,1.82-1.4,1.59-2.72,3.09-4.74,3.1h0a4.23,4.23,0,0,1-3.19-1.56c-1.54-1.7-2.21-3.93-2.35-7.08a26.66,26.66,0,0,1-17.45,9.51C383.29,150.68,382.87,150.69,382.46,150.69Zm6.29-29.85h0Zm0,0Zm0,0h0Z"/><path class="cls-1" d="M474.47,158.39a2.56,2.56,0,0,1-2.24-3.81q2.7-5.49,4.8-11A23.12,23.12,0,0,1,462.76,150c-4.75.41-7.45-1.26-8.88-2.74-2.38-2.44-3.29-6.26-2.71-11.37,1.12-9.91,12.25-20.46,20.23-21.82,5.85-1,10.2-.21,12.94,2.35,2.43-11.92,2.73-25.36,2.42-35.73-.23-5.72-.69-10.28-1-13.32-.43-4.28-.5-5,.43-6.08a2.61,2.61,0,0,1,1.94-.87,2.57,2.57,0,0,1,2.55,2.26A219.61,219.61,0,0,1,492,85.24c.29,18.12-2,44.86-15.26,71.72A2.57,2.57,0,0,1,474.47,158.39ZM476,118.81a22,22,0,0,0-3.73.36c-6,1-15.16,10-16,17.34-.39,3.45.05,6,1.29,7.22,1,1,2.56,1.39,4.76,1.2a18.47,18.47,0,0,0,13.29-7.31,40.08,40.08,0,0,0,6.58-12.88,5.9,5.9,0,0,0-1.28-4.46C479.93,119.31,478.26,118.81,476,118.81Z"/><path class="cls-1" d="M502.29,149.48c-5.16,0-9.18-1.42-11.67-4.28S487.26,138.06,488,133c1.12-7.45,5.64-14.65,11.52-18.34,5.3-3.31,11.91-4.6,16.86-3.28a9.54,9.54,0,0,1,6.22,4.62,10.69,10.69,0,0,1,.59,8.65,18,18,0,0,1-9.76,10.08c-7.31,3.31-15.15,2.8-20.31-1.23h0c-.59,3.6-.08,6.65,1.37,8.33,3.65,4.21,14.88,3,27.93-2.88l.07,0c18.29-8.32,21.59-9.81,39.83-15.81,15.42-5.08,32.25-4.83,39.6-1.65a16.18,16.18,0,0,1,9.12,10.73c1.06,4.49-1,11-8.68,14.58-3.29-.91-3.14-4.16-1.14-5.14,4.86-2.39,5.7-6.48,4.69-9.32a11.61,11.61,0,0,0-6-6.14c-6.33-2.74-21.88-2.82-36,1.81-18,5.91-21.23,7.39-39.31,15.61l-.07,0C516,147.52,508.36,149.48,502.29,149.48Zm-7.68-21.06a2.49,2.49,0,0,1,1.16.6c3.61,3.28,9.72,3.69,15.55,1a13,13,0,0,0,7-7.06,5.58,5.58,0,0,0-.26-4.58,4.5,4.5,0,0,0-3-2.08c-3.53-.94-8.79.16-12.81,2.67A20.62,20.62,0,0,0,494.61,128.42Z"/></g></svg>