<svg xmlns="http://www.w3.org/2000/svg" viewBox="0 0 800 800"><defs><style>.cls-1{fill:#ffccdb;}</style></defs><g id="Logo-Clara-Sem-BG"><path class="cls-1" d="M346.2,200.35h0a17,17,0,0,0-12.1,5.05,17,17,0,0,0-29.14,12h0c0,22.26,29.14,31.82,29.14,31.82s29.13-9.85,29.13-31.82h0A17,17,0,0,0,346.2,200.35Z"/><path class="cls-1" d="M234,200.35a42,42,0,0,1,18.7,4.11,40.85,40.85,0,0,1,14.38,11.81,55.88,55.88,0,0,1,9.24,18.67,86,86,0,0,1,3.23,24.32V395.92q0,15.07-4.19,24.66A39,39,0,0,1,263.74,436a39.28,39.28,0,0,1,11.63,15.24q4.19,9.42,4.19,24.15V621q0,27.42-12.47,43.16t-33.56,15.76H192.29a3.91,3.91,0,0,1-3.6-2.06,10.05,10.05,0,0,1-1.2-5.14V207.54a10.05,10.05,0,0,1,1.2-5.14,3.9,3.9,0,0,1,3.6-2.05Zm13.42,58.91q0-9.25-3.35-14.9t-10.55-5.65H219.62V416.47h13.91c4.79,0,8.31-1.93,10.55-5.82s3.35-8.79,3.35-14.73Zm0,216.13q0-8.91-3.35-14.73a11.11,11.11,0,0,0-10.31-5.82H219.62V641.51h13.91q7.18,0,10.55-5.66t3.35-14.9Z"/><path class="cls-1" d="M317.92,283.23q0-7.87,3.83-12.68a12.29,12.29,0,0,1,10.07-4.79h13.43a3.91,3.91,0,0,1,3.6,2.05A10.18,10.18,0,0,1,350,273V667.54a14.83,14.83,0,0,1-2.51,8.73q-2.52,3.6-6.12,3.6H326.55q-3.6,0-6.12-3.6a14.91,14.91,0,0,1-2.51-8.73Z"/><path class="cls-1" d="M480.47,626.43a85.1,85.1,0,0,1-3.24,24.49,54.62,54.62,0,0,1-9.35,18.5,41.5,41.5,0,0,1-14.63,11.82,42.7,42.7,0,0,1-18.82,4.11q-21.81,0-33.92-15.76T388.4,626.43v-163a10.05,10.05,0,0,1,1.2-5.14,3.9,3.9,0,0,1,3.6-2.05h13.9A10.92,10.92,0,0,1,417.17,462q3.36,5.82,3.36,14.73V626.43q0,9.26,3.47,14.9A11.46,11.46,0,0,0,434.43,647q7.2,0,10.55-5.66t3.36-14.9V217.82q0-7.87,3.84-12.68a12.27,12.27,0,0,1,10.07-4.79h13.42a3.9,3.9,0,0,1,3.6,2.05,10.05,10.05,0,0,1,1.2,5.14Z"/><path class="cls-1" d="M610.89,626.43q0,27.42-12.11,43.16t-33.92,15.76a42.46,42.46,0,0,1-18.94-4.11,41.91,41.91,0,0,1-14.51-11.82,54.62,54.62,0,0,1-9.35-18.5,85.1,85.1,0,0,1-3.24-24.49V207.54a10.05,10.05,0,0,1,1.2-5.14,3.9,3.9,0,0,1,3.6-2.05h13.43a12.27,12.27,0,0,1,10.06,4.79q3.84,4.8,3.84,12.68V626.43q0,9.26,3.36,14.9T564.86,647a11.46,11.46,0,0,0,10.43-5.66q3.47-5.64,3.47-14.9V217.82q0-7.87,3.84-12.68a12.27,12.27,0,0,1,10.07-4.79H606.1a3.9,3.9,0,0,1,3.59,2.05,10.05,10.05,0,0,1,1.2,5.14Z"/><path class="cls-1" d="M352.8,739.3a.93.93,0,0,1-.87-.49,1,1,0,0,1-.06-1l6.93-16.49a1,1,0,0,1,1-.7,1,1,0,0,1,1,.7l6.95,16.51a1,1,0,0,1-.06,1,1,1,0,0,1-.85.47,1,1,0,0,1-.57-.17,1.11,1.11,0,0,1-.41-.45l-6.35-15.58h.71l-6.45,15.58a.92.92,0,0,1-.38.46A1,1,0,0,1,352.8,739.3Zm1.48-4.35.79-1.75h9.58l.81,1.75Z"/><path class="cls-1" d="M389.19,739.54a9,9,0,0,1-3.62-.74,9.39,9.39,0,0,1-3-2.06,9.18,9.18,0,0,1-2-3,10.13,10.13,0,0,1,0-7.45,9.11,9.11,0,0,1,2-3,9.41,9.41,0,0,1,2.95-2.05,8.85,8.85,0,0,1,3.64-.75,9.26,9.26,0,0,1,3.13.49,8.4,8.4,0,0,1,2.7,1.59.7.7,0,0,1,.28.37.65.65,0,0,1,0,.39.88.88,0,0,1-.18.33.62.62,0,0,1-.28.42.88.88,0,0,1-.53.16,1,1,0,0,1-.63-.24,6.2,6.2,0,0,0-2-1.21,7.27,7.27,0,0,0-2.53-.39,6.64,6.64,0,0,0-2.83.61,7.59,7.59,0,0,0-3.89,4.09,8,8,0,0,0,0,5.93,7.5,7.5,0,0,0,3.89,4.09,7.06,7.06,0,0,0,5.25.16A8.77,8.77,0,0,0,393.8,736a.89.89,0,0,1,.68-.22,1,1,0,0,1,.6.3.91.91,0,0,1,.25.68.92.92,0,0,1-.07.38,2,2,0,0,1-.21.36,7.94,7.94,0,0,1-2.74,1.57A10.18,10.18,0,0,1,389.19,739.54Z"/><path class="cls-1" d="M411,739.3a1,1,0,0,1-1-1V721.66a1,1,0,0,1,1-1h11.08a1,1,0,0,1,.72.28,1,1,0,0,1,0,1.39,1,1,0,0,1-.72.27H412v6.36h7.28a1,1,0,0,1,.74.28.94.94,0,0,1,.29.7.9.9,0,0,1-.29.7,1,1,0,0,1-.74.28H412v6.47h10a1,1,0,0,1,.72.28.91.91,0,0,1,.29.68.93.93,0,0,1-.29.7,1,1,0,0,1-.72.28Z"/><path class="cls-1" d="M443.1,739.54a8.62,8.62,0,0,1-2.86-.46,7.05,7.05,0,0,1-2.3-1.28,5.18,5.18,0,0,1-1.46-1.92.74.74,0,0,1,0-.76,1,1,0,0,1,.68-.48,1,1,0,0,1,.72.08,1.14,1.14,0,0,1,.52.56,3.93,3.93,0,0,0,1,1.21,5,5,0,0,0,1.63.84,6.66,6.66,0,0,0,2,.29,5.74,5.74,0,0,0,2.22-.4,3.61,3.61,0,0,0,1.55-1.17,3,3,0,0,0,.58-1.87,3.3,3.3,0,0,0-1.05-2.42,5.55,5.55,0,0,0-3.35-1.3,8.1,8.1,0,0,1-4.46-1.75,4.46,4.46,0,0,1-1.61-3.49,4.21,4.21,0,0,1,.81-2.57A5.22,5.22,0,0,1,440,721a8.26,8.26,0,0,1,3.2-.58,6.9,6.9,0,0,1,2.44.41,6.24,6.24,0,0,1,1.87,1.12,6.48,6.48,0,0,1,1.33,1.55,1,1,0,0,1,.2.82.89.89,0,0,1-.44.61,1,1,0,0,1-.8.06,1.12,1.12,0,0,1-.64-.51,4.65,4.65,0,0,0-.89-1.06,3.92,3.92,0,0,0-1.3-.78,6,6,0,0,0-4.83.45,2.54,2.54,0,0,0-1.17,2.27,2.74,2.74,0,0,0,.42,1.45,3.23,3.23,0,0,0,1.41,1.16,9.31,9.31,0,0,0,2.71.71,7.74,7.74,0,0,1,4.44,1.8,4.86,4.86,0,0,1,1.48,3.7,5.18,5.18,0,0,1-.49,2.32,4.56,4.56,0,0,1-1.37,1.68,6.13,6.13,0,0,1-2,1A8.53,8.53,0,0,1,443.1,739.54Z"/><path class="cls-1" d="M469.86,739.54a8.52,8.52,0,0,1-2.85-.46,7,7,0,0,1-2.31-1.28,5.29,5.29,0,0,1-1.46-1.92.76.76,0,0,1,0-.76,1,1,0,0,1,.68-.48,1,1,0,0,1,.72.08,1.16,1.16,0,0,1,.53.56,3.76,3.76,0,0,0,1,1.21,5.13,5.13,0,0,0,1.63.84,6.71,6.71,0,0,0,2,.29,5.74,5.74,0,0,0,2.22-.4,3.59,3.59,0,0,0,1.56-1.17,3,3,0,0,0,.57-1.87,3.3,3.3,0,0,0-1-2.42,5.55,5.55,0,0,0-3.35-1.3,8.07,8.07,0,0,1-4.45-1.75,4.44,4.44,0,0,1-1.62-3.49,4.22,4.22,0,0,1,.82-2.57,5.19,5.19,0,0,1,2.22-1.67,8.3,8.3,0,0,1,3.2-.58,6.9,6.9,0,0,1,2.44.41,6.12,6.12,0,0,1,1.87,1.12,6.48,6.48,0,0,1,1.33,1.55,1,1,0,0,1,.2.82.86.86,0,0,1-.44.61,1,1,0,0,1-.8.06,1.07,1.07,0,0,1-.63-.51,5,5,0,0,0-.9-1.06,3.92,3.92,0,0,0-1.3-.78,6,6,0,0,0-4.83.45,2.54,2.54,0,0,0-1.17,2.27,2.74,2.74,0,0,0,.42,1.45,3.29,3.29,0,0,0,1.41,1.16,9.31,9.31,0,0,0,2.71.71,7.78,7.78,0,0,1,4.45,1.8,4.9,4.9,0,0,1,1.48,3.7,5.18,5.18,0,0,1-.49,2.32,4.69,4.69,0,0,1-1.38,1.68,6,6,0,0,1-2,1A8.53,8.53,0,0,1,469.86,739.54Z"/><path class="cls-1" d="M499.47,739.54a9.88,9.88,0,0,1-3.82-.72,9,9,0,0,1-3-2,8.78,8.78,0,0,1-2-3A10.41,10.41,0,0,1,490,730a10.3,10.3,0,0,1,.69-3.82,8.83,8.83,0,0,1,2-3,9.15,9.15,0,0,1,3-2,10.6,10.6,0,0,1,7.63,0,9.42,9.42,0,0,1,3,2,8.88,8.88,0,0,1,2,3A10.3,10.3,0,0,1,509,730a10.41,10.41,0,0,1-.69,3.84,8.82,8.82,0,0,1-2,3,9.26,9.26,0,0,1-3,2A9.87,9.87,0,0,1,499.47,739.54Zm0-1.92a7.6,7.6,0,0,0,3-.58,7.3,7.3,0,0,0,2.39-1.63,7.19,7.19,0,0,0,1.56-2.43,8.59,8.59,0,0,0,0-6.05,7.33,7.33,0,0,0-1.56-2.44,7.25,7.25,0,0,0-2.39-1.61,8.21,8.21,0,0,0-6,0,7,7,0,0,0-2.39,1.61,7.69,7.69,0,0,0-1.57,2.44,8.45,8.45,0,0,0,0,6.05,7.53,7.53,0,0,0,1.57,2.43,7,7,0,0,0,2.39,1.63A7.62,7.62,0,0,0,499.47,737.62Zm-.1-19a1,1,0,0,1-1-1,1.09,1.09,0,0,1,.21-.69l2.61-2.58a.92.92,0,0,1,.72-.31.94.94,0,0,1,.71.3,1.05,1.05,0,0,1,.29.75,1.15,1.15,0,0,1-.06.37.71.71,0,0,1-.23.32l-2.55,2.59A1,1,0,0,1,499.37,718.63Z"/><path class="cls-1" d="M524.63,739.3a1,1,0,0,1-1-1V721.66a1,1,0,0,1,1-1h4.42a6.43,6.43,0,0,1,3.12.75,5.48,5.48,0,0,1,2.15,2,5.76,5.76,0,0,1,.78,3,5.35,5.35,0,0,1-2.93,4.88,6.76,6.76,0,0,1-3.12.71h-3.39v6.24a1,1,0,0,1-1,1Zm1-9.23h3.39a4.56,4.56,0,0,0,2.09-.46,3.63,3.63,0,0,0,1.45-1.29,3.43,3.43,0,0,0,.52-1.88,3.85,3.85,0,0,0-.52-2,3.72,3.72,0,0,0-1.45-1.36,4.33,4.33,0,0,0-2.09-.49h-3.39Zm8.93,9.23a1.05,1.05,0,0,1-.52-.13,1.09,1.09,0,0,1-.36-.4l-4.52-7.19,2-.53,4.19,6.67a1.05,1.05,0,0,1,.13,1.09A1,1,0,0,1,534.59,739.3Z"/><path class="cls-1" d="M550.25,739.3a1,1,0,0,1-.74-.29,1,1,0,0,1-.29-.74V721.66a1,1,0,0,1,.29-.74,1,1,0,0,1,.74-.29,1,1,0,0,1,1,1v16.61a1,1,0,0,1-1,1Z"/><path class="cls-1" d="M575.43,739.54a9.92,9.92,0,0,1-3.82-.72,9.05,9.05,0,0,1-3-2,8.8,8.8,0,0,1-2-3,10.41,10.41,0,0,1-.69-3.84,10.3,10.3,0,0,1,.69-3.82,8.85,8.85,0,0,1,2-3,9.21,9.21,0,0,1,3-2,9.92,9.92,0,0,1,3.82-.71,9.79,9.79,0,0,1,3.81.71,9.36,9.36,0,0,1,3,2,8.71,8.71,0,0,1,2,3,10.3,10.3,0,0,1,.69,3.82,10.41,10.41,0,0,1-.69,3.84,8.66,8.66,0,0,1-2,3,9.2,9.2,0,0,1-3,2A9.8,9.8,0,0,1,575.43,739.54Zm0-1.92a7.6,7.6,0,0,0,3-.58,7.2,7.2,0,0,0,2.39-1.63,7,7,0,0,0,1.56-2.43,8.59,8.59,0,0,0,0-6.05,7.11,7.11,0,0,0-4-4,8.21,8.21,0,0,0-6,0,7.05,7.05,0,0,0-2.39,1.61,7.49,7.49,0,0,0-1.56,2.44,8.31,8.31,0,0,0,0,6.05,7.34,7.34,0,0,0,1.56,2.43,7.1,7.1,0,0,0,2.39,1.63A7.65,7.65,0,0,0,575.43,737.62Z"/><path class="cls-1" d="M605.35,739.54a8.62,8.62,0,0,1-2.86-.46,7.05,7.05,0,0,1-2.3-1.28,5.18,5.18,0,0,1-1.46-1.92.74.74,0,0,1,0-.76,1,1,0,0,1,.68-.48.93.93,0,0,1,.71.08,1.11,1.11,0,0,1,.53.56,3.93,3.93,0,0,0,1,1.21,5,5,0,0,0,1.63.84,6.66,6.66,0,0,0,2,.29,5.74,5.74,0,0,0,2.22-.4,3.61,3.61,0,0,0,1.55-1.17,3,3,0,0,0,.58-1.87,3.3,3.3,0,0,0-1.05-2.42,5.55,5.55,0,0,0-3.35-1.3,8.1,8.1,0,0,1-4.46-1.75,4.46,4.46,0,0,1-1.61-3.49,4.21,4.21,0,0,1,.81-2.57,5.22,5.22,0,0,1,2.23-1.67,8.26,8.26,0,0,1,3.2-.58,6.9,6.9,0,0,1,2.44.41,6.24,6.24,0,0,1,1.87,1.12,6.48,6.48,0,0,1,1.33,1.55,1,1,0,0,1,.2.82.89.89,0,0,1-.44.61,1,1,0,0,1-.8.06,1.12,1.12,0,0,1-.64-.51,4.65,4.65,0,0,0-.89-1.06,3.92,3.92,0,0,0-1.3-.78,6,6,0,0,0-4.83.45,2.54,2.54,0,0,0-1.17,2.27,2.74,2.74,0,0,0,.42,1.45,3.23,3.23,0,0,0,1.41,1.16,9.31,9.31,0,0,0,2.71.71,7.74,7.74,0,0,1,4.44,1.8,4.86,4.86,0,0,1,1.48,3.7,5.18,5.18,0,0,1-.49,2.32,4.56,4.56,0,0,1-1.37,1.68,6.13,6.13,0,0,1-2,1A8.53,8.53,0,0,1,605.35,739.54Z"/><path class="cls-1" d="M314.74,150.5a17,17,0,0,1-14.49-7.74c-2.68-4.25-2.65-10-2.62-15.59,0-4.35.05-8.85-1.48-10.65-2.07-2.45-8.34-2-16.36,1.31l-.09,0c-23.12,9.39-39.23,15.79-52.07,19-14.61,3.65-24.36,2.9-31.61-2.44-5.14-3.79-7.74-10.94-7.71-21.24a2.57,2.57,0,0,1,2.56-2.57h0a2.58,2.58,0,0,1,2.56,2.59c0,8.58,1.87,14.32,5.62,17.08,3.47,2.56,7.68,3.75,12.92,3.75,13.49,0,33.8-7.92,65.79-20.92l.09,0c7.5-3,17.44-5.51,22.21.12,2.75,3.25,2.72,8.47,2.69,14,0,4.84-.05,9.84,1.83,12.82,3.05,4.84,10.27,7.77,18.9,2.76,8.24-4.78,11.23-14.11,8-25l-.89-3,20.27-1.94a2.56,2.56,0,0,1,2.79,2.83,2.62,2.62,0,0,1-2.4,2.29l-14.09,1.35a28.43,28.43,0,0,1-.75,15.63,23.23,23.23,0,0,1-10.35,12.24A22.59,22.59,0,0,1,314.74,150.5Z"/><path class="cls-1" d="M349.73,149.61c-3.54,0-6.47-1.19-8.28-3.38C337.09,141,339.1,131,346.11,123c7.49-8.56,18.29-11.89,25.13-7.76h0a8.5,8.5,0,0,1,3.82,5.93c.92,4.94-1,11.3-5.12,16.61-5.63,7.32-13.08,11.76-19.93,11.88Zm14.79-31c-4.27,0-9.91,2.44-14.55,7.74-5.64,6.44-6.91,13.8-4.57,16.63.83,1,2.46,1.55,4.52,1.52s9-.85,15.95-9.88c3.61-4.69,4.68-9.67,4.14-12.54a3.58,3.58,0,0,0-1.43-2.48h0A7.88,7.88,0,0,0,364.52,118.59Z"/><path class="cls-1" d="M382.86,150.69c-3.63,0-6.55-1.29-8.28-3.7-3.81-5.28.22-16.71,4.59-22.93,5.15-7.31,8.47-8.27,9.66-8.34a2.56,2.56,0,0,1,.57,5.09c-.28.11-2.4,1-6,6.2-4.41,6.27-6.26,14.72-4.63,17,1.14,1.58,3.61,1.64,5,1.54,5.14-.4,12.45-4.36,15.13-9.63,3.42-6.73,3.61-8.69,4.06-13.42.12-1.26.26-2.68.48-4.41a2.62,2.62,0,0,1,2.32-2.34,2.57,2.57,0,0,1,2.79,2.79c-.31,3.34-.61,6.34-.89,9-.86,8.38-1.46,14.18-.32,16.6.24-.26.51-.56.73-.82.55-.62,1.18-1.33,1.92-2.05a2.62,2.62,0,0,1,3.32-.32,2.57,2.57,0,0,1,.31,3.94c-.62.61-1.17,1.23-1.7,1.82-1.39,1.59-2.71,3.09-4.74,3.1h0a4.21,4.21,0,0,1-3.18-1.56c-1.55-1.7-2.21-3.93-2.36-7.08a26.64,26.64,0,0,1-17.45,9.51C383.69,150.68,383.27,150.69,382.86,150.69Zm6.28-29.85Zm0,0h0Zm0,0Z"/><path class="cls-1" d="M474.87,158.39a2.57,2.57,0,0,1-1.42-.43,2.65,2.65,0,0,1-.83-3.38c1.81-3.66,3.4-7.31,4.81-11A23.17,23.17,0,0,1,463.15,150c-4.75.41-7.45-1.26-8.88-2.74-2.37-2.44-3.28-6.26-2.71-11.37,1.12-9.91,12.25-20.46,20.23-21.82,5.86-1,10.21-.21,12.94,2.35,2.44-11.92,2.73-25.36,2.43-35.73-.24-5.72-.69-10.28-1-13.32-.42-4.28-.5-5,.43-6.08a2.64,2.64,0,0,1,1.94-.87,2.57,2.57,0,0,1,2.55,2.26,218,218,0,0,1,1.35,22.52c.29,18.12-2,44.86-15.26,71.72A2.58,2.58,0,0,1,474.87,158.39Zm1.51-39.58a21.84,21.84,0,0,0-3.72.36c-6,1-15.16,10-16,17.34-.39,3.45.06,6,1.29,7.22,1,1,2.56,1.39,4.77,1.2A18.47,18.47,0,0,0,476,137.62a40.06,40.06,0,0,0,6.57-12.88,5.9,5.9,0,0,0-1.28-4.46C480.32,119.31,478.65,118.81,476.38,118.81Z"/><path class="cls-1" d="M502.69,149.48c-5.17,0-9.19-1.42-11.67-4.28s-3.37-7.14-2.61-12.19c1.11-7.45,5.64-14.65,11.52-18.34,5.29-3.31,11.91-4.6,16.86-3.28A9.5,9.5,0,0,1,523,116a10.65,10.65,0,0,1,.59,8.65,18,18,0,0,1-9.76,10.08c-7.31,3.31-15.14,2.8-20.31-1.23h0c-.58,3.6-.08,6.65,1.37,8.33,3.66,4.21,14.88,3,27.93-2.88l.07,0c18.3-8.32,21.59-9.81,39.83-15.81,15.43-5.08,32.25-4.83,39.6-1.65a16.18,16.18,0,0,1,9.12,10.73c1.07,4.49-1,11-8.68,14.58-3.28-.91-3.14-4.16-1.13-5.14,4.86-2.39,5.69-6.48,4.68-9.32a11.55,11.55,0,0,0-6-6.14c-6.33-2.74-21.88-2.82-36,1.81-18,5.91-21.23,7.39-39.3,15.61l-.07,0C516.39,147.52,508.75,149.48,502.69,149.48ZM495,128.42a2.49,2.49,0,0,1,1.16.6c3.61,3.28,9.72,3.69,15.56,1,3.36-1.52,6-4.23,7-7.06a5.54,5.54,0,0,0-.26-4.58,4.48,4.48,0,0,0-3-2.08c-3.53-.94-8.8.16-12.82,2.67A20.68,20.68,0,0,0,495,128.42Z"/></g></svg>